<svg xmlns="http://www.w3.org/2000/svg" width="200" height="200"><g fill="#064765"><path d="M70.943 83h.084c11.64 0 21.116-9.928 21.123-21.606.006-11.618-9.44-21.303-21.109-21.33-5.656 0-10.954 2.093-14.917 6.085-3.96 3.99-6.141 9.691-6.139 15.38.005 11.786 9.21 21.471 20.958 21.471zm-12.017-34.175c3.217-3.24 7.52-5.025 12.156-5.025 9.285.022 17.125 7.782 17.119 17.064-.006 9.506-7.71 17.136-17.174 17.136h-.069c-9.542 0-17.021-7.47-17.023-17.053-.002-4.639 1.771-8.878 4.991-12.122z"/><path d="M130.695 89h.082c11.36 0 20.606-9.275 20.614-20.674.006-11.336-9.213-20.584-20.601-20.61-5.52 0-10.689 2.147-14.558 6.044-3.865 3.893-5.993 9.095-5.991 14.646.006 11.502 8.99 20.594 20.454 20.594zm-11.659-32.458c3.121-3.146 7.295-4.877 11.795-4.877 9.01.021 16.617 7.624 16.612 16.636-.007 9.22-7.483 16.699-16.666 16.699h-.066c-9.26 0-16.516-7.322-16.52-16.621-.002-4.502 1.719-8.691 4.845-11.837z"/><path d="M167.48 145.786c-.443-10.705-.902-21.776-1.432-32.665-.268-5.51-1.899-10.39-4.847-14.504-3.041-4.245-6.649-6.342-11.033-6.413-1.997-.032-4.626-.031-7.245.267-9.117 1.037-18.343.93-27.418-.314-.995-.135-1.977-.203-2.92-.218-1.939-7.747-8.959-13.517-17.333-13.537-4.787 0-9.271 1.862-12.626 5.241-.768.774-1.452 1.609-2.057 2.492-8.531.732-17.12.529-25.542-.626-6.233-.854-10.97.592-14.491 4.418-3.174 3.45-5.107 7.581-5.59 11.946-.636 5.746-.918 11.596-1.191 17.253l-.063 1.311c-.616 12.652-1.164 25.347-1.666 37.178-.022.537.175 1.226.547 1.614s.887.771 1.425.771h10.129c1.053 0 1.921-.99 1.972-2.044.645-13.312 1.253-26.499 1.869-39.86.07 5.025.16 10.053.246 14.977l.429 24.845c.019 1.076.897 2.083 1.975 2.083h100.066c1.079 0 1.958-1.028 1.975-2.107l.357-22.544c.023-1.465.049-2.97.075-4.433l.03-1.698c.502 10.914.926 20.12 1.338 28.749.05 1.053.918 2.033 1.972 2.033h9.571c.539 0 1.053-.383 1.426-.771s.57-.994.547-1.533c-.167-3.942-.331-7.968-.495-11.911zm-82.052-59.36c2.608-2.628 6.097-4.074 9.857-4.074 7.53.018 13.888 6.766 13.884 14.297-.005 7.706-6.253 14.351-13.928 14.351h-.057c-7.738 0-13.803-6.514-13.806-14.285-.001-3.764 1.437-7.656 4.05-10.289zm32.893 69.574l-.177-3.915c-.171-3.653-.342-7.374-.51-11.026-.114-2.498-1.241-3.83-3.351-3.891l-.141-.017c-.79 0-3.369.252-3.396 3.635-.023 2.922-.076 5.896-.126 8.773-.022 1.259-.044 2.656-.064 3.917l-.039 2.524h-30.278l-.006-.48c-.083-4.754-.167-9.572-.228-14.324-.019-1.442-.509-3.902-3.6-3.914-2.171 0-3.33 1.379-3.445 3.888-.226 4.902-.452 9.831-.68 14.831h-4.372c.156-4 .314-7.073.483-10.54l.052-1.146c.22-4.553.448-9.297.952-13.865.314-2.836 1.536-5.443 3.63-7.721 2.071-2.251 4.748-3.025 8.685-2.485 4.394.604 8.851.904 13.247.904 3.662 0 7.383-.213 11.058-.632 1.293-.146 2.695-.217 4.414-.217.433 0 .864.005 1.297.012 2.534.041 4.599 1.292 6.497 3.943 2.099 2.928 3.261 6.575 3.456 10.562.352 7.237.666 14.185.937 21.185h-4.295zm39.992 0c-.485-11-.992-21.2-1.628-35.115-.046-1.013-.187-4.167-3.597-4.263-1.133-.026-2.044.245-2.719.896-1.062 1.025-1.075 2.497-1.079 2.985-.027 3.438-.089 6.927-.149 10.31l-.075 4.534-.326 20.653h-22.172c-.273-7-.589-14.062-.944-21.378-.232-4.759-1.642-9.044-4.19-12.599-2.615-3.65-5.86-5.568-9.644-5.629-.453-.006-.906-.027-1.36-.027-1.87 0-3.414.066-4.859.231-3.527.399-7.098.6-10.612.6-4.217 0-8.493-.296-12.709-.873-.965-.133-1.895-.2-2.763-.2-3.825 0-6.976 1.315-9.365 3.912-2.639 2.869-4.247 6.306-4.65 9.943-.518 4.691-.749 9.461-.972 14.074l-.052 1.215c-.172 3.53-.331 6.73-.491 10.73h-11.399l-.395-22.911c-.101-5.721-.205-11.292-.279-17.108-.036-2.855-1.367-3.98-3.955-3.98h-.018c-3.582 0-3.726 2.858-3.775 3.923-.624 13.556-1.239 27.077-1.89 40.077h-6.188c.477-11 .997-23.322 1.577-35.232l.063-1.38c.271-5.599.55-11.423 1.172-17.046.395-3.574 1.933-6.856 4.571-9.725 2.616-2.842 6.127-3.861 11.048-3.186 7.908 1.083 15.956 1.361 23.973.836-.68 1.923-1.033 4.369-1.033 6.478.004 9.978 7.797 18.255 17.739 18.255h.073c9.85 0 17.87-8.438 17.876-18.323l-.009-.576c.604.027 1.227-.019 1.859.069 9.403 1.289 18.958 1.348 28.401.274 2.394-.272 4.857-.298 6.736-.267 3.087.051 5.593 1.552 7.886 4.753 2.499 3.487 3.882 7.649 4.113 12.388.528 10.874.987 22.075 1.431 32.773.135 3.258.27 5.908.407 9.908h-5.628z"/></g></svg>