<svg xmlns="http://www.w3.org/2000/svg" width="200" height="200"><path fill="#064765" d="M59.862 130.233l.164-1.742c.018-.16 1.507-16.233 1.507-29.117 0-12.872-1.489-26.938-1.505-27.08l-.081-.759.563-.518c.354-.325 8.932-7.966 30.281-7.966 21.225 0 29.751 5.57 30.104 5.809l.697.467-.029.84c-.007.207-.713 20.622-1.155 28.849.274 4.567.646 13.478.911 20.168l.086 2.199-2.085-.706c-1.003-.338-1.764-.591-2.251-.75l-13.984 8.073-43.223 2.233zm3.261-57.428c.32 3.237 1.438 15.344 1.438 26.569 0 10.519-.982 23.112-1.368 27.659l39.009-2.021 14.516-8.378.637.203.853.277c-.254-6.368-.58-13.965-.826-18.003l-.005-.087.005-.088c.388-7.149.983-23.866 1.126-27.959-2.361-1.227-10.844-4.898-27.715-4.898-10.485 0-17.611 1.954-21.744 3.594-3.118 1.24-5.043 2.488-5.926 3.132z"/><path fill="#064765" d="M147.266 157.124c-3.268 0-5.654-.411-5.755-.431l-.261-.075c-1.047-.429-25.607-10.507-29.354-12.198-8.188-3.083-23.215-8.788-23.366-8.846l-.183-2.271 27.918-16.116 1.014-.11c.081.027 8.366 2.671 20.484 7.367 12.043 4.667 25.506 8.968 25.641 9.01.155.046 1.777.576 2.796 2.645 1.328 2.702.997 6.666-.985 11.781-2.309 5.961-8.685 9.244-17.949 9.244zm-5.193-2.894c.52.083 2.566.373 5.192.373 5.765 0 13.15-1.325 15.598-7.635 2.138-5.52 1.763-8.351 1.071-9.756-.525-1.069-1.264-1.345-1.271-1.347-.16-.051-13.694-4.375-25.812-9.07-10.314-3.994-17.816-6.493-19.812-7.144l-25.132 14.507c4.458 1.69 13.92 5.278 20.129 7.619.249.01.554.104 3.177 1.122 1.012.391 1.732.673 2.2.856.557.219 1.093.432 1.341.839 8.235 3.443 21.822 9.023 23.319 9.636z"/><path fill="#064765" d="M53.612 62.008l-2.328-1.936c.273-.331 6.938-8.117 28.411-8.117 21.222 0 29.75 5.569 30.101 5.806l-1.684 2.517c-.078-.054-8.261-5.296-28.417-5.296-10.399 0-16.95 1.921-20.614 3.532-3.932 1.729-5.453 3.476-5.469 3.494z"/><path fill="#064765" d="M45.54 53.938l-2.326-1.937c.273-.331 6.936-8.117 28.408-8.117 21.225 0 29.752 5.569 30.104 5.807l-1.684 2.515c-.079-.053-8.262-5.295-28.42-5.295-10.397 0-16.949 1.921-20.611 3.531-3.933 1.73-5.455 3.477-5.471 3.496z"/><path fill="#064765" d="M60.464 129.704l-28.249-28.248.065-.71c.016-.16 1.509-16.234 1.509-29.117 0-12.845-1.485-23.9-1.501-24.011l-.085-.632.392-.502c.355-.457 8.954-11.178 30.451-11.178 21.225 0 29.751 5.57 30.104 5.808l-1.685 2.516c-.02-.013-2.054-1.336-6.548-2.644-4.16-1.209-11.329-2.651-21.872-2.651-10.422 0-17.499 2.725-21.602 5.011-3.323 1.852-5.286 3.725-6.07 4.555.328 2.645 1.441 12.52 1.441 23.729 0 11.473-1.167 25.414-1.457 28.688l27.245 27.246-2.138 2.14z"/><rect x="86.559" y="54.73" transform="matrix(.707 .707 -.707 .707 70.867 -58.606)" fill="#064765" width="39.24" height="3.027"/><path fill="#064765" d="M147.26 164.693c-3.229 0-5.601-.408-5.737-.433l-.133-.022-.128-.053s-7.46-3.06-14.91-6.144c-3.728-1.542-7.452-3.088-10.24-4.262-1.398-.588-2.563-1.081-3.376-1.434-.291-.126-.561-.243-.801-.357-2.575-.972-5.812-2.195-9.048-3.42-7.154-2.71-14.689-5.429-14.689-5.429l-1.198-.307v-7.832h3v6.091c8 2.677 16.221 6.102 22.034 8.294.33.049.726.168.983.263.461.17 1.202.438 2.186.819l2.221.857c.171.066-.134.144.052.233l-.475.008v.003c0 .147 1.091.335 1.264.593 6.243 2.611 16.237 6.628 23.567 9.637 1.57.241 17.184 2.356 20.912-7.263 3.709-9.574 2.11-11.74 2.095-11.762l.138.094 1.521-2.022c.796.591 3.059 3.39-1.283 14.601-1.953 5.036-6.72 8.15-13.799 9.006-1.465.178-2.877.241-4.156.241z"/></svg>