<svg xmlns="http://www.w3.org/2000/svg" width="200" height="200"><path fill="#064765" d="M170.479 137h-140.958l3.677-58.603 3.126.618c.309.049 31.117 4.955 63.677 4.955 32.581 0 63.368-4.818 63.676-4.868l3.127-.719 3.675 58.617zm-134.833-4h128.709l-2.904-47.081c-8.734 1.231-34.496 4.188-61.451 4.188-26.954 0-52.716-2.796-61.452-4.026l-2.902 46.919z"/><path fill="#064765" d="M64 160h-26v-26h26v26zm-21-3h17v-20h-17v20z"/><path fill="#064765" d="M160 160h-26v-26h26v26zm-22-3h18v-20h-18v20z"/><path fill="#064765" d="M100 89.785c-21.967 0-40.496-2.172-52.756-3.607-2.151-.252-4.131-.485-5.933-.683l-3.214-.081 10.283-44.414h103.24l10.282 44.414-3.215.218c-1.801.198-3.78.361-5.931.612-12.26 1.438-30.789 3.541-52.756 3.541zm-54.846-9.752l2.759.375c12.128 1.42 30.457 3.595 52.087 3.595s39.959-2.134 52.087-3.556c.954-.109 1.874-.318 2.76-.42l-7.809-34.027h-94.076l-7.808 34.033z"/><path fill="#064765" d="M54.577 127.605c-8.274 0-15.005-6.731-15.005-15.005s6.73-15.005 15.005-15.005c8.271 0 15.004 6.731 15.004 15.005s-6.733 15.005-15.004 15.005zm0-25.898c-6.009 0-10.895 4.888-10.895 10.894 0 6.007 4.886 10.893 10.895 10.893 6.005 0 10.893-4.886 10.893-10.893 0-6.006-4.888-10.894-10.893-10.894z"/><path fill="#064765" d="M145.835 127.605c-8.271 0-15.004-6.731-15.004-15.005s6.732-15.005 15.004-15.005c8.273 0 15.005 6.731 15.005 15.005s-6.732 15.005-15.005 15.005zm0-25.898c-6.006 0-10.894 4.888-10.894 10.894 0 6.007 4.888 10.893 10.894 10.893 6.008 0 10.894-4.886 10.894-10.893 0-6.006-4.886-10.894-10.894-10.894z"/><rect x="79" y="119" fill="#064765" width="42" height="6"/><rect x="79" y="111" fill="#064765" width="42" height="5"/></svg>