<svg xmlns="http://www.w3.org/2000/svg" width="200" height="200"><path fill="#064765" d="M121.494 107.313l-32.15-32.15 26.889-26.889 32.149 32.149-26.888 26.89zm-23.966-32.15l23.966 23.967 18.705-18.706-23.966-23.967-18.705 18.706z"/><path fill="#064765" d="M91.817 80.874l-12.626-18.939 23.813-23.812 18.939 12.626-30.126 30.125zm-5.18-18.201l6.08 9.117 20.145-20.144-9.119-6.079-17.106 17.106z"/><path fill="#064765" d="M115.783 104.841l30.127-30.128 12.625 18.939-23.812 23.813-18.94-12.624zm29.227-21.045l-20.144 20.145 9.119 6.079 17.104-17.104-6.079-9.12z"/><polygon fill="#064765" points="42.582,160.506 36.151,154.075 105.711,86.854 109.803,90.945"/><path fill="#064765" d="M163.849 162h-73.392l12.591-14h48.211l12.59 14zm-64.48-4h55.568l-5.597-6h-44.375l-5.596 6z"/></svg>