<svg xmlns="http://www.w3.org/2000/svg" width="200" height="200"><path fill="#064765" d="M106.006 159.062l-73.422-44.779 44.732-73.346 32.818 18.584 57.283-9.133-1.912 60.623-32.752 4.195-26.747 43.856zm-66.55-46.445l65.738 40.094 25.432-41.701 30.338-4.244 1.273-50.166-53.074 8.328-30.19-17.104-39.517 64.793z"/><rect x="56.916" y="104.42" transform="matrix(.854 .521 -.521 .854 68.792 -14.056)" fill="#064765" width="5" height="22.001"/><polygon fill="#064765" points="89.119,146.42 84.85,143.816 102.741,114.48 92.668,104.109 72.897,136.527 68.629,133.924 91.84,95.863 109.125,113.617"/><rect x="102.521" y="119.712" transform="matrix(.665 .746 -.746 .665 129.215 -43.727)" fill="#064765" width="21.745" height="5.182"/><polygon fill="#064765" points="62.948,108.824 55.425,77.779 60.459,76.559 66.762,102.57 87.512,97.543 77.399,82.242 81.72,79.387 95.901,100.84"/></svg>