<svg xmlns="http://www.w3.org/2000/svg" width="200" height="200"><path fill="#064765" d="M99.95 93.977h-.107c-14.863-.059-26.509-11.786-26.515-26.7-.002-7.195 2.756-13.939 7.767-18.988 5.015-5.051 11.718-7.834 18.874-7.834 14.763.035 26.715 12.02 26.707 26.719-.01 14.779-11.999 26.803-26.726 26.803zm.071-48.526c-5.867 0-11.31 2.26-15.38 6.359-4.075 4.105-6.318 9.598-6.316 15.467.005 12.121 9.465 21.655 21.538 21.703h.087c11.973 0 21.721-9.783 21.728-21.809.008-11.745-9.911-21.691-21.657-21.72z"/><path fill="#064765" d="M145.456 160h-90.911c-.683 0-1.335-.505-1.806-.999-.472-.492-.721-1.271-.689-1.952l.179-3.986c.16-3.533.321-7.093.492-10.624l.082-1.684c.345-7.154.703-14.559 1.505-21.82.61-5.525 3.057-10.755 7.073-15.12 3.597-3.91 8.349-5.895 14.124-5.895 1.319 0 2.735.103 4.208.304 6.573.9 13.238 1.358 19.812 1.358 5.475 0 11.04-.316 16.537-.943 2.216-.252 4.593-.371 7.476-.371.703 0 1.404.008 2.106.02 5.766.094 10.517 2.855 14.521 8.447 3.891 5.428 6.044 11.871 6.399 19.148.536 11.037 1.002 21.896 1.388 31.064.028.68-.223 1.567-.693 2.058-.472.49-1.123.995-1.803.995zm-10.43-5h7.824c-.363-8-.792-18.655-1.278-28.651-.306-6.301-2.146-11.956-5.47-16.595-3.06-4.271-6.409-6.35-10.54-6.416-.675-.01-1.349-.046-2.025-.046-2.69 0-4.887.096-6.911.326-5.686.645-11.439.967-17.103.967-6.801 0-13.695-.476-20.491-1.407-6.314-.865-10.628.379-13.976 4.018-3.337 3.627-5.283 7.761-5.783 12.282-.787 7.107-1.14 14.425-1.481 21.503l-.081 1.672c-.172 3.525-.333 7.276-.492 10.804l-.06 1.543h7.921c.287-6 .573-12.581.857-18.761.062-1.346.244-5.411 4.775-5.411 4.103.012 4.996 3.142 5.027 5.628.08 6.26.187 13.544.288 18.544h48.284c.028-2 .06-3.745.09-5.505.079-4.471.16-8.479.196-13.021.039-4.602 3.303-4.475 4.706-4.475h.204c4.408 0 4.585 3.257 4.652 4.71.191 4.197.39 8.247.586 12.444l.281 5.847z"/></svg>