<svg xmlns="http://www.w3.org/2000/svg" width="200" height="200"><path fill="#064765" d="M100.313 37.732c16.678 0 29.778 2.254 37.979 4.146 5.424 1.251 9.342 2.512 11.519 3.31v58.714c0 6.736-1.062 13.947-3.663 20.854-2.567 6.818-6.174 13.356-10.726 18.907-4.72 5.756-10.004 10.304-15.862 13.515-6.16 3.377-12.529 5.089-19.01 5.089s-12.871-1.713-19.03-5.089c-5.858-3.211-11.21-7.759-15.93-13.515-4.553-5.551-8.587-12.09-11.154-18.907-2.601-6.907-4.247-14.118-4.247-20.854v-58.713c5.988-2.109 24.255-7.457 50.124-7.457m-.313-3.692c-33.175 0-53.621 8.587-53.621 8.587v61.276c0 29.532 24.09 62.058 53.621 62.058s53.621-32.526 53.621-62.058v-61.277s-20.446-8.586-53.621-8.586z"/><rect x="98.813" y="37.732" fill="#064765" width="3" height="124.535"/><rect x="50.188" y="97.333" fill="#064765" width="99.622" height="3"/></svg>