<svg xmlns="http://www.w3.org/2000/svg" width="200" height="200"><path fill="#064765" d="M43.449 147.105c-.351-.134-8.629-3.389-11.375-11.639-1.95-5.86-.614-12.52 3.972-19.798l5.169 6.313c-3.549 5.633-4.68 7.478-3.359 11.509 1.801 5.499 6.205 9.419 6.265 9.443l-.672 4.172z"/><circle fill="#064765" cx="132.376" cy="103.773" r="5.856"/><path fill="#064765" d="M96.479 61.348c-8.142 0-14.766-6.624-14.766-14.767 0-8.142 6.624-14.766 14.766-14.766s14.766 6.624 14.766 14.766c0 8.143-6.624 14.767-14.766 14.767zm0-26.478c-6.458 0-11.711 5.253-11.711 11.711s5.253 11.712 11.711 11.712 11.711-5.254 11.711-11.712-5.253-11.711-11.711-11.711z"/><path fill="#064765" d="M156.495 104.599c-1.73-7.209-5.524-14.017-11.073-19.889 2.209-3.016 5.54-8.234 5.54-12.252v-1.266l-.895-.895c-1.319-1.318-3.277-1.959-5.986-1.959-5.402 0-13.333 2.662-16.394 3.767-9.429-4.436-20.188-6.775-31.207-6.775-33.692 0-61.102 21.7-61.102 48.372 0 12.299 5.774 23.93 16.294 32.899v21.584h30.551v-7.432c7.085 1.335 14.462 1.68 21.895.938v6.494h30.551v-16.708c7.205-4.566 13.02-10.365 16.976-16.924l9.765-.286 7.386-19.785-12.301-9.883zm2.861 25.662l-10.521-1.155-.657 1.217c-3.75 6.942-9.842 13.057-17.616 17.681l-1.004.598v14.475h-20.331v-7.211l-2.351.341c-9.105 1.323-18.476.897-27.223-1.233l-2.542-.619v8.723h-20.33v-18.89l-.762-.615c-10.016-8.1-15.531-18.706-15.531-29.868 0-23.854 25.118-43.262 55.991-43.262 10.667 0 21.051 2.342 30.041 6.774l2.289.518 1.287-1.062.169-.059c2.729-.951 9.539-3.162 13.816-3.162l.326.005 1.411.044-.51 1.316c-1.011 2.607-3.272 5.97-4.901 8.057l-.108.118-2.054 1.902 1.688 1.553c6.23 5.922 10.324 13.009 11.85 20.504l.18.883 12.252 7.404-4.859 15.023z"/><polygon fill="#064765" points="109.718,82.619 82.222,82.619 80.694,76.508 111.245,76.508"/></svg>