<svg xmlns="http://www.w3.org/2000/svg" width="450" height="450" viewBox="-25 0 450 450" enable-background="new -25 0 450 450"><g fill="#E6C2A1"><path d="M-20.989 397.185v-3.418l4.136-.376 1.265-1.094v-37.324l-1.06-.991-4.614-.342v-3.418h18.901c6.676 0 11.53 1.128 14.561 3.384 3.03 2.256 4.546 5.834 4.546 10.732 0 4.922-1.606 8.744-4.819 11.467-3.213 2.724-7.713 4.085-13.501 4.085-.547 0-1.219-.017-2.017-.052-.798-.033-1.721-.085-2.769-.153v12.612l1.06 1.094 4.99.376v3.418h-20.679zm14.629-21.499l.239.034c1.048.068 1.812.103 2.29.103 3.623 0 6.352-.934 8.186-2.803 1.834-1.868 2.751-4.66 2.751-8.374 0-3.35-.843-5.913-2.529-7.69-1.687-1.777-4.113-2.666-7.28-2.666h-3.657v21.396z"/><path d="M19.958 397.185v-3.418l4.272-.376 1.196-1.094v-37.324l-.991-.991-4.478-.342v-3.418h20.166v3.418l-4.272.342-1.128.991v38.145h13.467l.889-1.128 1.06-8.511h5.195v13.706h-35.376z"/><path d="M75.33 349.709h7.349l16.099 43.34 4.136.718v3.418h-18.903v-3.418l4.409-.444.513-.889-4.204-11.895h-15.278l-4.204 11.826.718.889 4.409.513v3.418h-15.074v-3.418l4.204-.649 15.826-43.409zm1.538 9.604l-6.084 17.295h12.339l-6.255-17.295z"/><path d="M105.989 350.222h33.735v3.828l-24.507 38.999h17.944l.684-.991 1.333-8.442h4.956v13.569h-35.41v-3.862l24.507-39.033h-15.825l-1.333.82-1.128 7.485h-4.956v-12.373z"/><path d="M162.317 349.709h7.349l16.099 43.34 4.136.718v3.418h-18.901v-3.418l4.409-.444.513-.889-4.204-11.895h-15.278l-4.204 11.826.718.889 4.409.513v3.418h-15.073v-3.418l4.204-.649 15.823-43.409zm1.538 9.604l-6.084 17.295h12.339l-6.255-17.295z"/><path d="M210.887 397.185v-3.418l4.271-.376 1.197-1.094v-37.324l-.992-.991-4.477-.342v-3.418h20.166v3.418l-4.273.342-1.127.991v38.145h13.467l.889-1.128 1.059-8.511h5.195v13.706h-35.375z"/><path d="M249.031 397.185v-3.418l4.271-.376 1.129-1.094v-37.324l-1.129-.991-4.271-.342v-3.418h35.307v10.972h-4.854l-1.195-6.152-.752-.923h-14.014v16.68h9.125l.957-.991.719-5.024h4.135v16.235h-4.135l-.719-5.059-.957-.957h-9.125v18.184h16.338l.82-1.128 1.127-7.417h4.82v12.544h-37.597z"/><path d="M316.604 374.079h20.439v3.452l-4.066.342-1.094.957v16.338c-2.758.957-5.436 1.675-8.033 2.153s-5.15.718-7.656.718c-7.314 0-13.25-2.278-17.807-6.836-4.559-4.557-6.836-10.493-6.836-17.808 0-7.246 2.328-13.051 6.988-17.415 4.66-4.363 10.842-6.545 18.543-6.545 2.324 0 4.723.193 7.195.581s5.008.969 7.605 1.743v11.895h-5.127l-1.334-7.417-1.059-1.265c-.912-.387-1.846-.672-2.803-.854s-1.961-.273-3.008-.273c-5.242 0-9.361 1.737-12.357 5.212-2.996 3.476-4.494 8.255-4.494 14.339 0 6.243 1.533 11.126 4.598 14.646 3.064 3.521 7.32 5.281 12.766 5.281.365 0 .877-.018 1.539-.051.66-.035 1.424-.086 2.289-.154v-14.288l-1.094-.957-5.195-.342v-3.452z"/><path d="M357.688 349.709h7.35l16.098 43.34 4.137.718v3.418h-18.902v-3.418l4.41-.444.512-.889-4.203-11.895h-15.279l-4.203 11.826.717.889 4.41.513v3.418h-15.074v-3.418l4.205-.649 15.822-43.409zm1.539 9.604l-6.084 17.295h12.338l-6.254-17.295z"/><path d="M385.887 397.185v-3.418l4.271-.376 1.197-1.094v-37.324l-.992-.991-4.477-.342v-3.418h20.166v3.418l-4.273.342-1.127.991v38.145h13.467l.889-1.128 1.059-8.511h5.195v13.706h-35.375z"/><path d="M256.969 135.095l-1.691-1.595h-38.524l.489-44.808-15.869-19.284-15.868 19.271.489 44.821h-38.341l-1.691 1.595-26.571 48.403c.201 7.171 3.098 13.884 8.211 18.932 5.248 5.181 12.221 8.04 19.636 8.04 7.453 0 14.447-2.862 19.699-8.067 5.09-5.043 7.966-11.804 8.151-18.959l-24.615-44.944h35.575l1.032 96h-10.581v5h20.765l.625 26h6.415l.313-26h19.882v-5h-8.833l1.032-96h35.758l-24.615 44.944c.186 7.156 3.062 13.877 8.152 18.921 5.252 5.205 12.246 8.092 19.699 8.092 7.414 0 14.387-2.844 19.635-8.023 5.113-5.048 8.011-11.771 8.211-18.941l-26.57-48.398zm-93.204 64.301c-4.432 4.384-10.262 6.771-16.535 6.771-6.272 0-12.172-2.358-16.6-6.718-3.358-3.307-5.613-6.948-6.511-11.948h46.065c-.882 4.999-3.079 8.591-6.419 11.895zm5.585-16.896h-44.223l22.112-39.604 22.111 39.604zm23.2 52l-1.266-141.583 10.089-13.554 10.09 13.672-1.266 141.465h-17.647zm63.143-91.604l22.111 39.604h-44.224l22.113-39.604zm16.608 56.538c-4.428 4.358-10.328 6.732-16.6 6.732-6.273 0-12.104-2.373-16.535-6.757-3.34-3.303-5.536-6.909-6.42-11.909h46.066c-.898 5-3.154 8.628-6.511 11.934z"/><path d="M200.575 58.744c30.636 0 54.7 4.141 69.765 7.616 9.963 2.298 17.16 4.615 21.16 6.081v107.855c0 12.374-1.95 25.62-6.729 38.307-4.716 12.524-11.342 24.535-19.703 34.732-8.67 10.574-18.377 18.928-29.137 24.826-11.315 6.203-23.016 9.349-34.921 9.349-11.905 0-23.643-3.146-34.957-9.349-10.76-5.898-20.593-14.252-29.263-24.826-8.363-10.197-15.773-22.208-20.489-34.732-4.778-12.688-7.802-25.934-7.802-38.307v-107.854c11.001-3.874 44.556-13.698 92.076-13.698m-.575-6.783c-60.941 0-98.5 15.773-98.5 15.773v112.562c0 54.248 44.252 113.997 98.5 113.997s98.5-59.749 98.5-113.997v-112.562s-37.559-15.773-98.5-15.773z"/></g></svg>