<?xml version="1.0" encoding="utf-8"?>
<!-- Generator: Adobe Illustrator 16.0.0, SVG Export Plug-In . SVG Version: 6.00 Build 0)  -->
<!DOCTYPE svg PUBLIC "-//W3C//DTD SVG 1.1//EN" "http://www.w3.org/Graphics/SVG/1.1/DTD/svg11.dtd">
<svg version="1.1" id="Layer_1" xmlns="http://www.w3.org/2000/svg" xmlns:xlink="http://www.w3.org/1999/xlink" x="0px" y="0px"
	 width="200px" height="200px" viewBox="0 0 200 200" enable-background="new 0 0 200 200" xml:space="preserve">
<g>
	<path fill="#064765" d="M70.943,83h0.084c11.64,0,21.116-9.928,21.123-21.606c0.006-11.618-9.44-21.303-21.109-21.33
		c-5.656,0-10.954,2.093-14.917,6.085c-3.96,3.99-6.141,9.691-6.139,15.38C49.99,73.315,59.195,83,70.943,83z M58.926,48.825
		c3.217-3.24,7.52-5.025,12.156-5.025c9.285,0.022,17.125,7.782,17.119,17.064C88.195,70.37,80.491,78,71.027,78h-0.069
		c-9.542,0-17.021-7.47-17.023-17.053C53.933,56.308,55.706,52.069,58.926,48.825z"/>
	<path fill="#064765" d="M130.695,89h0.082c11.36,0,20.606-9.275,20.614-20.674c0.006-11.336-9.213-20.584-20.601-20.61
		c-5.52,0-10.689,2.147-14.558,6.044c-3.865,3.893-5.993,9.095-5.991,14.646C110.247,79.908,119.231,89,130.695,89z M119.036,56.542
		c3.121-3.146,7.295-4.877,11.795-4.877c9.01,0.021,16.617,7.624,16.612,16.636C147.436,77.521,139.96,85,130.777,85h-0.066
		c-9.26,0-16.516-7.322-16.52-16.621C114.189,63.877,115.91,59.688,119.036,56.542z"/>
	<path fill="#064765" d="M167.48,145.786c-0.443-10.705-0.902-21.776-1.432-32.665c-0.268-5.51-1.899-10.39-4.847-14.504
		c-3.041-4.245-6.649-6.342-11.033-6.413c-1.997-0.032-4.626-0.031-7.245,0.267c-9.117,1.037-18.343,0.93-27.418-0.314
		c-0.995-0.135-1.977-0.203-2.92-0.218c-1.939-7.747-8.959-13.517-17.333-13.537c-4.787,0-9.271,1.862-12.626,5.241
		c-0.768,0.774-1.452,1.609-2.057,2.492c-8.531,0.732-17.12,0.529-25.542-0.626c-6.233-0.854-10.97,0.592-14.491,4.418
		c-3.174,3.45-5.107,7.581-5.59,11.946c-0.636,5.746-0.918,11.596-1.191,17.253l-0.063,1.311
		c-0.616,12.652-1.164,25.347-1.666,37.178c-0.022,0.537,0.175,1.226,0.547,1.614S33.46,160,33.998,160h10.129
		c1.053,0,1.921-0.99,1.972-2.044c0.645-13.312,1.253-26.499,1.869-39.86c0.07,5.025,0.16,10.053,0.246,14.977l0.429,24.845
		c0.019,1.076,0.897,2.083,1.975,2.083h100.066c1.079,0,1.958-1.028,1.975-2.107l0.357-22.544c0.023-1.465,0.049-2.97,0.075-4.433
		c0.01-0.557,0.02-1.136,0.03-1.698c0.502,10.914,0.926,20.12,1.338,28.749c0.05,1.053,0.918,2.033,1.972,2.033h9.571
		c0.539,0,1.053-0.383,1.426-0.771s0.57-0.994,0.547-1.533C167.808,153.755,167.644,149.729,167.48,145.786z M85.428,86.426
		c2.608-2.628,6.097-4.074,9.857-4.074c7.53,0.018,13.888,6.766,13.884,14.297C109.164,104.355,102.916,111,95.241,111h-0.057
		c-7.738,0-13.803-6.514-13.806-14.285C81.377,92.951,82.815,89.059,85.428,86.426z M118.321,156l-0.177-3.915
		c-0.171-3.653-0.342-7.374-0.51-11.026c-0.114-2.498-1.241-3.83-3.351-3.891l-0.141-0.017c-0.79,0-3.369,0.252-3.396,3.635
		c-0.023,2.922-0.076,5.896-0.126,8.773c-0.022,1.259-0.044,2.656-0.064,3.917L110.517,156H80.239l-0.006-0.48
		c-0.083-4.754-0.167-9.572-0.228-14.324c-0.019-1.442-0.509-3.902-3.6-3.914c-2.171,0-3.33,1.379-3.445,3.888
		c-0.226,4.902-0.452,9.831-0.68,14.831h-4.372c0.156-4,0.314-7.073,0.483-10.54l0.052-1.146c0.22-4.553,0.448-9.297,0.952-13.865
		c0.314-2.836,1.536-5.443,3.63-7.721c2.071-2.251,4.748-3.025,8.685-2.485c4.394,0.604,8.851,0.904,13.247,0.904
		c3.662,0,7.383-0.213,11.058-0.632c1.293-0.146,2.695-0.217,4.414-0.217c0.433,0,0.864,0.005,1.297,0.012
		c2.534,0.041,4.599,1.292,6.497,3.943c2.099,2.928,3.261,6.575,3.456,10.562c0.352,7.237,0.666,14.185,0.937,21.185H118.321z
		 M158.313,156c-0.485-11-0.992-21.2-1.628-35.115c-0.046-1.013-0.187-4.167-3.597-4.263c-1.133-0.026-2.044,0.245-2.719,0.896
		c-1.062,1.025-1.075,2.497-1.079,2.985c-0.027,3.438-0.089,6.927-0.149,10.31c-0.025,1.467-0.051,3.069-0.075,4.534L148.74,156
		h-22.172c-0.273-7-0.589-14.062-0.944-21.378c-0.232-4.759-1.642-9.044-4.19-12.599c-2.615-3.65-5.86-5.568-9.644-5.629
		c-0.453-0.006-0.906-0.027-1.36-0.027c-1.87,0-3.414,0.066-4.859,0.231c-3.527,0.399-7.098,0.6-10.612,0.6
		c-4.217,0-8.493-0.296-12.709-0.873c-0.965-0.133-1.895-0.2-2.763-0.2c-3.825,0-6.976,1.315-9.365,3.912
		c-2.639,2.869-4.247,6.306-4.65,9.943c-0.518,4.691-0.749,9.461-0.972,14.074l-0.052,1.215c-0.172,3.53-0.331,6.73-0.491,10.73
		H52.558l-0.395-22.911c-0.101-5.721-0.205-11.292-0.279-17.108c-0.036-2.855-1.367-3.98-3.955-3.98c-0.006,0-0.012,0-0.018,0
		c-3.582,0-3.726,2.858-3.775,3.923C43.512,129.479,42.897,143,42.246,156h-6.188c0.477-11,0.997-23.322,1.577-35.232l0.063-1.38
		c0.271-5.599,0.55-11.423,1.172-17.046c0.395-3.574,1.933-6.856,4.571-9.725c2.616-2.842,6.127-3.861,11.048-3.186
		c7.908,1.083,15.956,1.361,23.973,0.836c-0.68,1.923-1.033,4.369-1.033,6.478C77.433,106.723,85.226,115,95.168,115h0.073
		c9.85,0,17.87-8.438,17.876-18.323c0-0.129-0.006-0.451-0.009-0.576c0.604,0.027,1.227-0.019,1.859,0.069
		c9.403,1.289,18.958,1.348,28.401,0.274c2.394-0.272,4.857-0.298,6.736-0.267c3.087,0.051,5.593,1.552,7.886,4.753
		c2.499,3.487,3.882,7.649,4.113,12.388c0.528,10.874,0.987,22.075,1.431,32.773c0.135,3.258,0.27,5.908,0.407,9.908H158.313z"/>
</g>
</svg>
