<?xml version="1.0" encoding="utf-8"?>
<!-- Generator: Adobe Illustrator 17.0.0, SVG Export Plug-In . SVG Version: 6.00 Build 0)  -->
<!DOCTYPE svg PUBLIC "-//W3C//DTD SVG 1.1//EN" "http://www.w3.org/Graphics/SVG/1.1/DTD/svg11.dtd">
<svg version="1.1" id="Layer_1" xmlns="http://www.w3.org/2000/svg" xmlns:xlink="http://www.w3.org/1999/xlink" x="0px" y="0px"
	 width="200px" height="200px" viewBox="0 0 200 200" enable-background="new 0 0 200 200" xml:space="preserve">
<path fill="#064765" d="M100.313,37.732c16.678,0,29.778,2.254,37.979,4.146c5.424,1.251,9.342,2.512,11.519,3.31v58.714
	c0,6.736-1.062,13.947-3.663,20.854c-2.567,6.818-6.174,13.356-10.726,18.907c-4.72,5.756-10.004,10.304-15.862,13.515
	c-6.16,3.377-12.529,5.089-19.01,5.089s-12.871-1.713-19.03-5.089c-5.858-3.211-11.21-7.759-15.93-13.515
	c-4.553-5.551-8.587-12.09-11.154-18.907c-2.601-6.907-4.247-14.118-4.247-20.854V45.189C56.177,43.08,74.444,37.732,100.313,37.732
	 M100,34.04c-33.175,0-53.621,8.587-53.621,8.587v61.276c0,29.532,24.09,62.058,53.621,62.058s53.621-32.526,53.621-62.058V42.626
	C153.621,42.626,133.175,34.04,100,34.04L100,34.04z"/>
<g>
	<rect x="98.813" y="37.732" fill="#064765" width="3" height="124.535"/>
</g>
<g>
	<rect x="50.188" y="97.333" fill="#064765" width="99.622" height="3"/>
</g>
</svg>
