<?xml version="1.0" encoding="utf-8"?>
<!-- Generator: Adobe Illustrator 17.0.0, SVG Export Plug-In . SVG Version: 6.00 Build 0)  -->
<!DOCTYPE svg PUBLIC "-//W3C//DTD SVG 1.1//EN" "http://www.w3.org/Graphics/SVG/1.1/DTD/svg11.dtd">
<svg version="1.1" id="Layer_1" xmlns="http://www.w3.org/2000/svg" xmlns:xlink="http://www.w3.org/1999/xlink" x="0px" y="0px"
	 width="200px" height="200px" viewBox="0 0 200 200" enable-background="new 0 0 200 200" xml:space="preserve">
<g>
	<g>
		<path fill="#064765" d="M43.449,147.105c-0.351-0.134-8.629-3.389-11.375-11.639c-1.95-5.86-0.614-12.52,3.972-19.798l5.169,6.313
			c-3.549,5.633-4.68,7.478-3.359,11.509c1.801,5.499,6.205,9.419,6.265,9.443L43.449,147.105z"/>
	</g>
	<g>
		<circle fill="#064765" cx="132.376" cy="103.773" r="5.856"/>
	</g>
	<g>
		<path fill="#064765" d="M96.479,61.348c-8.142,0-14.766-6.624-14.766-14.767c0-8.142,6.624-14.766,14.766-14.766
			s14.766,6.624,14.766,14.766C111.245,54.724,104.621,61.348,96.479,61.348z M96.479,34.87c-6.458,0-11.711,5.253-11.711,11.711
			s5.253,11.712,11.711,11.712s11.711-5.254,11.711-11.712S102.937,34.87,96.479,34.87z"/>
	</g>
	<g>
		<path fill="#064765" d="M156.495,104.599c-1.73-7.209-5.524-14.017-11.073-19.889c2.209-3.016,5.54-8.234,5.54-12.252v-1.266
			l-0.895-0.895c-1.319-1.318-3.277-1.959-5.986-1.959c-5.402,0-13.333,2.662-16.394,3.767c-9.429-4.436-20.188-6.775-31.207-6.775
			c-33.692,0-61.102,21.7-61.102,48.372c0,12.299,5.774,23.93,16.294,32.899v21.584h30.551v-7.432
			c7.085,1.335,14.462,1.68,21.895,0.938v6.494h30.551v-16.708c7.205-4.566,13.02-10.365,16.976-16.924l9.765-0.286l7.386-19.785
			L156.495,104.599z M159.356,130.261l-10.521-1.155l-0.657,1.217c-3.75,6.942-9.842,13.057-17.616,17.681l-1.004,0.598v14.475
			h-20.331v-7.211l-2.351,0.341c-9.105,1.323-18.476,0.897-27.223-1.233l-2.542-0.619v8.723H56.781v-18.89l-0.762-0.615
			c-10.016-8.1-15.531-18.706-15.531-29.868c0-23.854,25.118-43.262,55.991-43.262c10.667,0,21.051,2.342,30.041,6.774l2.289,0.518
			l1.287-1.062l0.169-0.059c2.729-0.951,9.539-3.162,13.816-3.162c0.114,0,0.224,0.001,0.326,0.005l1.411,0.044l-0.51,1.316
			c-1.011,2.607-3.272,5.97-4.901,8.057l-0.108,0.118l-2.054,1.902l1.688,1.553c6.23,5.922,10.324,13.009,11.85,20.504l0.18,0.883
			l12.252,7.404L159.356,130.261z"/>
	</g>
	<g>
		<polygon fill="#064765" points="109.718,82.619 82.222,82.619 80.694,76.508 111.245,76.508 		"/>
	</g>
</g>
</svg>
