<?xml version="1.0" encoding="utf-8"?>
<!-- Generator: Adobe Illustrator 16.0.0, SVG Export Plug-In . SVG Version: 6.00 Build 0)  -->
<!DOCTYPE svg PUBLIC "-//W3C//DTD SVG 1.1//EN" "http://www.w3.org/Graphics/SVG/1.1/DTD/svg11.dtd">
<svg version="1.1" id="Layer_1" xmlns="http://www.w3.org/2000/svg" xmlns:xlink="http://www.w3.org/1999/xlink" x="0px" y="0px"
	 width="200px" height="200px" viewBox="0 0 200 200" enable-background="new 0 0 200 200" xml:space="preserve">
<g>
	<g>
		<path fill="#064765" d="M106.006,159.062l-73.422-44.779l44.732-73.346l32.818,18.584l57.283-9.133l-1.912,60.623l-32.752,4.195
			L106.006,159.062z M39.456,112.617l65.738,40.094l25.432-41.701l30.338-4.244l1.273-50.166l-53.074,8.328L78.973,47.824
			L39.456,112.617z"/>
	</g>
	<g>
		
			<rect x="56.916" y="104.42" transform="matrix(0.8537 0.5207 -0.5207 0.8537 68.7916 -14.0562)" fill="#064765" width="5" height="22.001"/>
	</g>
	<g>
		<polygon fill="#064765" points="89.119,146.42 84.85,143.816 102.741,114.48 92.668,104.109 72.897,136.527 68.629,133.924 
			91.84,95.863 109.125,113.617 		"/>
	</g>
	<g>
		
			<rect x="102.521" y="119.712" transform="matrix(0.6655 0.7464 -0.7464 0.6655 129.2149 -43.727)" fill="#064765" width="21.745" height="5.182"/>
	</g>
	<g>
		<polygon fill="#064765" points="62.948,108.824 55.425,77.779 60.459,76.559 66.762,102.57 87.512,97.543 77.399,82.242 
			81.72,79.387 95.901,100.84 		"/>
	</g>
</g>
</svg>
