<?xml version="1.0" encoding="utf-8"?>
<!-- Generator: Adobe Illustrator 16.0.0, SVG Export Plug-In . SVG Version: 6.00 Build 0)  -->
<!DOCTYPE svg PUBLIC "-//W3C//DTD SVG 1.1//EN" "http://www.w3.org/Graphics/SVG/1.1/DTD/svg11.dtd">
<svg version="1.1" id="Layer_1" xmlns="http://www.w3.org/2000/svg" xmlns:xlink="http://www.w3.org/1999/xlink" x="0px" y="0px"
	 width="200px" height="200px" viewBox="0 0 200 200" enable-background="new 0 0 200 200" xml:space="preserve">
<g>
	<g>
		<path fill="#064765" d="M99.95,93.977h-0.107C84.98,93.918,73.334,82.191,73.328,67.277c-0.002-7.195,2.756-13.939,7.767-18.988
			c5.015-5.051,11.718-7.834,18.874-7.834c14.763,0.035,26.715,12.02,26.707,26.719C126.666,81.953,114.677,93.977,99.95,93.977z
			 M100.021,45.451c-5.867,0-11.31,2.26-15.38,6.359c-4.075,4.105-6.318,9.598-6.316,15.467C78.33,79.398,87.79,88.932,99.863,88.98
			h0.087c11.973,0,21.721-9.783,21.728-21.809C121.686,55.426,111.767,45.48,100.021,45.451z"/>
	</g>
	<g>
		<path fill="#064765" d="M145.456,160H54.545c-0.683,0-1.335-0.505-1.806-0.999c-0.472-0.492-0.721-1.271-0.689-1.952l0.179-3.986
			c0.16-3.533,0.321-7.093,0.492-10.624l0.082-1.684c0.345-7.154,0.703-14.559,1.505-21.82c0.61-5.525,3.057-10.755,7.073-15.12
			c3.597-3.91,8.349-5.895,14.124-5.895c1.319,0,2.735,0.103,4.208,0.304c6.573,0.9,13.238,1.358,19.812,1.358
			c5.475,0,11.04-0.316,16.537-0.943c2.216-0.252,4.593-0.371,7.476-0.371c0.703,0,1.404,0.008,2.106,0.02
			c5.766,0.094,10.517,2.855,14.521,8.447c3.891,5.428,6.044,11.871,6.399,19.148c0.536,11.037,1.002,21.896,1.388,31.064
			c0.028,0.68-0.223,1.567-0.693,2.058C146.787,159.495,146.136,160,145.456,160z M135.026,155h7.824
			c-0.363-8-0.792-18.655-1.278-28.651c-0.306-6.301-2.146-11.956-5.47-16.595c-3.06-4.271-6.409-6.35-10.54-6.416
			c-0.675-0.01-1.349-0.046-2.025-0.046c-2.69,0-4.887,0.096-6.911,0.326c-5.686,0.645-11.439,0.967-17.103,0.967
			c-6.801,0-13.695-0.476-20.491-1.407c-6.314-0.865-10.628,0.379-13.976,4.018c-3.337,3.627-5.283,7.761-5.783,12.282
			c-0.787,7.107-1.14,14.425-1.481,21.503l-0.081,1.672c-0.172,3.525-0.333,7.276-0.492,10.804L57.159,155h7.921
			c0.287-6,0.573-12.581,0.857-18.761c0.062-1.346,0.244-5.411,4.775-5.411c4.103,0.012,4.996,3.142,5.027,5.628
			c0.08,6.26,0.187,13.544,0.288,18.544h48.284c0.028-2,0.06-3.745,0.09-5.505c0.079-4.471,0.16-8.479,0.196-13.021
			c0.039-4.602,3.303-4.475,4.706-4.475h0.204c4.408,0,4.585,3.257,4.652,4.71c0.191,4.197,0.39,8.247,0.586,12.444L135.026,155z"/>
	</g>
</g>
</svg>
