<?xml version="1.0" encoding="utf-8"?>
<!-- Generator: Adobe Illustrator 16.0.0, SVG Export Plug-In . SVG Version: 6.00 Build 0)  -->
<!DOCTYPE svg PUBLIC "-//W3C//DTD SVG 1.1//EN" "http://www.w3.org/Graphics/SVG/1.1/DTD/svg11.dtd">
<svg version="1.1" id="Layer_1" xmlns="http://www.w3.org/2000/svg" xmlns:xlink="http://www.w3.org/1999/xlink" x="0px" y="0px"
	 width="200px" height="200px" viewBox="0 0 200 200" enable-background="new 0 0 200 200" xml:space="preserve">
<g>
	<g>
		<path fill="#064765" d="M59.862,130.233l0.164-1.742c0.018-0.16,1.507-16.233,1.507-29.117c0-12.872-1.489-26.938-1.505-27.08
			l-0.081-0.759l0.563-0.518c0.354-0.325,8.932-7.966,30.281-7.966c21.225,0,29.751,5.57,30.104,5.809l0.697,0.467l-0.029,0.84
			c-0.007,0.207-0.713,20.622-1.155,28.849c0.274,4.567,0.646,13.478,0.911,20.168l0.086,2.199l-2.085-0.706
			c-1.003-0.338-1.764-0.591-2.251-0.75L103.085,128L59.862,130.233z M63.123,72.805c0.32,3.237,1.438,15.344,1.438,26.569
			c0,10.519-0.982,23.112-1.368,27.659l39.009-2.021l14.516-8.378l0.637,0.203c0,0,0.293,0.095,0.853,0.277
			c-0.254-6.368-0.58-13.965-0.826-18.003l-0.005-0.087l0.005-0.088c0.388-7.149,0.983-23.866,1.126-27.959
			c-2.361-1.227-10.844-4.898-27.715-4.898c-10.485,0-17.611,1.954-21.744,3.594C65.931,70.913,64.006,72.161,63.123,72.805z"/>
	</g>
	<g>
		<path fill="#064765" d="M147.266,157.124c-3.268,0-5.654-0.411-5.755-0.431l-0.261-0.075
			c-1.047-0.429-25.607-10.507-29.354-12.198c-8.188-3.083-23.215-8.788-23.366-8.846l-0.183-2.271l27.918-16.116l1.014-0.11
			c0.081,0.027,8.366,2.671,20.484,7.367c12.043,4.667,25.506,8.968,25.641,9.01c0.155,0.046,1.777,0.576,2.796,2.645
			c1.328,2.702,0.997,6.666-0.985,11.781C162.906,153.841,156.53,157.124,147.266,157.124z M142.073,154.23
			c0.52,0.083,2.566,0.373,5.192,0.373c5.765,0,13.15-1.325,15.598-7.635c2.138-5.52,1.763-8.351,1.071-9.756
			c-0.525-1.069-1.264-1.345-1.271-1.347c-0.16-0.051-13.694-4.375-25.812-9.07c-10.314-3.994-17.816-6.493-19.812-7.144
			l-25.132,14.507c4.458,1.69,13.92,5.278,20.129,7.619c0.249,0.01,0.554,0.104,3.177,1.122c1.012,0.391,1.732,0.673,2.2,0.856
			c0.557,0.219,1.093,0.432,1.341,0.839C126.989,148.037,140.576,153.617,142.073,154.23z"/>
	</g>
	<g>
		<path fill="#064765" d="M53.612,62.008l-2.328-1.936c0.273-0.331,6.938-8.117,28.411-8.117c21.222,0,29.75,5.569,30.101,5.806
			l-1.684,2.517c-0.078-0.054-8.261-5.296-28.417-5.296c-10.399,0-16.95,1.921-20.614,3.532
			C55.149,60.243,53.628,61.99,53.612,62.008z"/>
	</g>
	<g>
		<path fill="#064765" d="M45.54,53.938l-2.326-1.937c0.273-0.331,6.936-8.117,28.408-8.117c21.225,0,29.752,5.569,30.104,5.807
			l-1.684,2.515c-0.079-0.053-8.262-5.295-28.42-5.295c-10.397,0-16.949,1.921-20.611,3.531
			C47.078,52.172,45.556,53.919,45.54,53.938z"/>
	</g>
	<g>
		<path fill="#064765" d="M60.464,129.704l-28.249-28.248l0.065-0.71c0.016-0.16,1.509-16.234,1.509-29.117
			c0-12.845-1.485-23.9-1.501-24.011l-0.085-0.632l0.392-0.502c0.355-0.457,8.954-11.178,30.451-11.178
			c21.225,0,29.751,5.57,30.104,5.808l-1.685,2.516c-0.02-0.013-2.054-1.336-6.548-2.644c-4.16-1.209-11.329-2.651-21.872-2.651
			c-10.422,0-17.499,2.725-21.602,5.011c-3.323,1.852-5.286,3.725-6.07,4.555c0.328,2.645,1.441,12.52,1.441,23.729
			c0,11.473-1.167,25.414-1.457,28.688l27.245,27.246L60.464,129.704z"/>
	</g>
	<g>
		
			<rect x="86.559" y="54.73" transform="matrix(0.7071 0.7071 -0.7071 0.7071 70.8669 -58.6058)" fill="#064765" width="39.24" height="3.027"/>
	</g>
	<g>
		<path fill="#064765" d="M147.26,164.693c-3.229,0-5.601-0.408-5.737-0.433l-0.133-0.022l-0.128-0.053c0,0-7.46-3.06-14.91-6.144
			c-3.728-1.542-7.452-3.088-10.24-4.262c-1.398-0.588-2.563-1.081-3.376-1.434c-0.291-0.126-0.561-0.243-0.801-0.357
			c-2.575-0.972-5.812-2.195-9.048-3.42c-7.154-2.71-14.689-5.429-14.689-5.429L87,142.832V135h3v6.091
			c8,2.677,16.221,6.102,22.034,8.294c0.33,0.049,0.726,0.168,0.983,0.263c0.461,0.17,1.202,0.438,2.186,0.819
			c1.015,0.393,1.752,0.673,2.221,0.857c0.171,0.066-0.134,0.144,0.052,0.233c0.011,0.002-0.475,0.007-0.475,0.008v0.003
			c0,0.147,1.091,0.335,1.264,0.593c6.243,2.611,16.237,6.628,23.567,9.637c1.57,0.241,17.184,2.356,20.912-7.263
			c3.709-9.574,2.11-11.74,2.095-11.762c0,0.001,0.062,0.037,0.138,0.094l1.521-2.022c0.796,0.591,3.059,3.39-1.283,14.601
			c-1.953,5.036-6.72,8.15-13.799,9.006C149.951,164.63,148.539,164.693,147.26,164.693z"/>
	</g>
</g>
</svg>
