<?xml version="1.0" encoding="utf-8"?>
<!-- Generator: Adobe Illustrator 16.0.0, SVG Export Plug-In . SVG Version: 6.00 Build 0)  -->
<!DOCTYPE svg PUBLIC "-//W3C//DTD SVG 1.1//EN" "http://www.w3.org/Graphics/SVG/1.1/DTD/svg11.dtd">
<svg version="1.1" id="Layer_1" xmlns="http://www.w3.org/2000/svg" xmlns:xlink="http://www.w3.org/1999/xlink" x="0px" y="0px"
	 width="200px" height="200px" viewBox="0 0 200 200" enable-background="new 0 0 200 200" xml:space="preserve">
<g>
	<g>
		<g>
			<path fill="#064765" d="M121.494,107.313l-32.15-32.15l26.889-26.889l32.149,32.149L121.494,107.313z M97.528,75.163
				l23.966,23.967l18.705-18.706l-23.966-23.967L97.528,75.163z"/>
		</g>
		<g>
			<path fill="#064765" d="M91.817,80.874L79.191,61.935l23.813-23.812l18.939,12.626L91.817,80.874z M86.637,62.673l6.08,9.117
				l20.145-20.144l-9.119-6.079L86.637,62.673z"/>
		</g>
		<g>
			<path fill="#064765" d="M115.783,104.841l30.127-30.128l12.625,18.939l-23.812,23.813L115.783,104.841z M145.01,83.796
				l-20.144,20.145l9.119,6.079l17.104-17.104L145.01,83.796z"/>
		</g>
		<g>
			<polygon fill="#064765" points="42.582,160.506 36.151,154.075 105.711,86.854 109.803,90.945 			"/>
		</g>
	</g>
	<g>
		<path fill="#064765" d="M163.849,162H90.457l12.591-14h48.211L163.849,162z M99.369,158h55.568l-5.597-6h-44.375L99.369,158z"/>
	</g>
</g>
</svg>
