<?xml version="1.0" encoding="utf-8"?>
<!-- Generator: Adobe Illustrator 16.0.0, SVG Export Plug-In . SVG Version: 6.00 Build 0)  -->
<!DOCTYPE svg PUBLIC "-//W3C//DTD SVG 1.1//EN" "http://www.w3.org/Graphics/SVG/1.1/DTD/svg11.dtd">
<svg version="1.1" id="Layer_1" xmlns="http://www.w3.org/2000/svg" xmlns:xlink="http://www.w3.org/1999/xlink" x="0px" y="0px"
	 width="200px" height="200px" viewBox="0 0 200 200" enable-background="new 0 0 200 200" xml:space="preserve">
<g>
	<g>
		<path fill="#064765" d="M170.479,137H29.521l3.677-58.603l3.126,0.618c0.309,0.049,31.117,4.955,63.677,4.955
			c32.581,0,63.368-4.818,63.676-4.868l3.127-0.719L170.479,137z M35.646,133h128.709l-2.904-47.081
			c-8.734,1.231-34.496,4.188-61.451,4.188c-26.954,0-52.716-2.796-61.452-4.026L35.646,133z"/>
	</g>
	<g>
		<path fill="#064765" d="M64,160H38v-26h26V160z M43,157h17v-20H43V157z"/>
	</g>
	<g>
		<path fill="#064765" d="M160,160h-26v-26h26V160z M138,157h18v-20h-18V157z"/>
	</g>
	<g>
		<path fill="#064765" d="M100,89.785c-21.967,0-40.496-2.172-52.756-3.607c-2.151-0.252-4.131-0.485-5.933-0.683l-3.214-0.081
			L48.38,41h103.24l10.282,44.414l-3.215,0.218c-1.801,0.198-3.78,0.361-5.931,0.612C140.496,87.682,121.967,89.785,100,89.785z
			 M45.154,80.033c0.886,0.102,1.806,0.264,2.759,0.375c12.128,1.42,30.457,3.595,52.087,3.595s39.959-2.134,52.087-3.556
			c0.954-0.109,1.874-0.318,2.76-0.42L147.038,46H52.962L45.154,80.033z"/>
	</g>
	<g>
		<path fill="#064765" d="M54.577,127.605c-8.274,0-15.005-6.731-15.005-15.005s6.73-15.005,15.005-15.005
			c8.271,0,15.004,6.731,15.004,15.005S62.848,127.605,54.577,127.605z M54.577,101.707c-6.009,0-10.895,4.888-10.895,10.894
			c0,6.007,4.886,10.893,10.895,10.893c6.005,0,10.893-4.886,10.893-10.893C65.47,106.595,60.582,101.707,54.577,101.707z"/>
	</g>
	<g>
		<path fill="#064765" d="M145.835,127.605c-8.271,0-15.004-6.731-15.004-15.005s6.732-15.005,15.004-15.005
			c8.273,0,15.005,6.731,15.005,15.005S154.108,127.605,145.835,127.605z M145.835,101.707c-6.006,0-10.894,4.888-10.894,10.894
			c0,6.007,4.888,10.893,10.894,10.893c6.008,0,10.894-4.886,10.894-10.893C156.729,106.595,151.843,101.707,145.835,101.707z"/>
	</g>
	<g>
		<rect x="79" y="119" fill="#064765" width="42" height="6"/>
	</g>
	<g>
		<rect x="79" y="111" fill="#064765" width="42" height="5"/>
	</g>
</g>
</svg>
