<?xml version="1.0" encoding="utf-8"?>
<!-- Generator: Adobe Illustrator 16.0.0, SVG Export Plug-In . SVG Version: 6.00 Build 0)  -->
<!DOCTYPE svg PUBLIC "-//W3C//DTD SVG 1.1//EN" "http://www.w3.org/Graphics/SVG/1.1/DTD/svg11.dtd">
<svg version="1.1" id="Layer_1" xmlns="http://www.w3.org/2000/svg" xmlns:xlink="http://www.w3.org/1999/xlink" x="0px" y="0px"
	 width="400px" height="400px" viewBox="0 0 400 400" enable-background="new 0 0 400 400" xml:space="preserve">
<g>
	<g>
		<path fill="#E6C2A1" d="M55.471,372.38v-3.418l4.272-0.377l1.196-1.094v-37.324l-0.991-0.99l-4.478-0.342v-3.418h20.166v3.418
			l-4.272,0.342l-1.128,0.99v38.145h13.467l0.889-1.127l1.06-8.512h5.195v13.707H55.471z"/>
		<path fill="#E6C2A1" d="M93.616,372.38v-3.418l4.272-0.377l1.128-1.094v-37.324l-1.128-0.99l-4.272-0.342v-3.418h35.308v10.971
			h-4.854l-1.196-6.152l-0.752-0.922h-14.014v16.68h9.126l0.957-0.992l0.718-5.023h4.136v16.234h-4.136l-0.718-5.059l-0.957-0.957
			h-9.126v18.184h16.338l0.82-1.127l1.128-7.418h4.819v12.545H93.616z"/>
		<path fill="#E6C2A1" d="M161.189,349.274h20.439v3.451l-4.067,0.342l-1.094,0.957v16.338c-2.757,0.957-5.435,1.676-8.032,2.154
			s-5.15,0.717-7.656,0.717c-7.314,0-13.25-2.277-17.808-6.836c-4.558-4.557-6.836-10.492-6.836-17.807
			c0-7.246,2.33-13.051,6.99-17.415c4.66-4.363,10.84-6.546,18.542-6.546c2.324,0,4.722,0.194,7.195,0.582
			c2.472,0.387,5.007,0.969,7.605,1.742v11.895h-5.127l-1.333-7.416l-1.06-1.266c-0.912-0.387-1.846-0.672-2.803-0.854
			c-0.957-0.183-1.96-0.273-3.008-0.273c-5.241,0-9.36,1.737-12.356,5.212c-2.997,3.476-4.495,8.255-4.495,14.339
			c0,6.243,1.532,11.125,4.597,14.646c3.064,3.521,7.32,5.28,12.766,5.28c0.364,0,0.877-0.017,1.538-0.051
			c0.661-0.034,1.424-0.086,2.29-0.154v-14.287l-1.094-0.957l-5.195-0.342V349.274z"/>
		<path fill="#E6C2A1" d="M202.273,324.903h7.348l16.1,43.34l4.135,0.719v3.418h-18.9v-3.418l4.408-0.445l0.514-0.889l-4.205-11.895
			h-15.278l-4.204,11.826l0.718,0.889l4.409,0.514v3.418h-15.073v-3.418l4.204-0.65L202.273,324.903z M203.811,334.509
			l-6.083,17.295h12.339L203.811,334.509z"/>
		<path fill="#E6C2A1" d="M230.471,372.38v-3.418l4.273-0.377l1.195-1.094v-37.324l-0.99-0.99l-4.479-0.342v-3.418h20.166v3.418
			l-4.271,0.342l-1.129,0.99v38.145h13.467l0.889-1.127l1.061-8.512h5.195v13.707H230.471z"/>
		<path fill="#E6C2A1" d="M268.615,372.38v-3.418l4.273-0.377l1.127-1.094v-37.324l-1.127-0.99l-4.273-0.342v-3.418h35.309v10.971
			h-4.854l-1.197-6.152l-0.752-0.922h-14.014v16.68h9.127l0.957-0.992l0.717-5.023h4.137v16.234h-4.137l-0.717-5.059l-0.957-0.957
			h-9.127v18.184h16.338l0.82-1.127l1.129-7.418h4.818v12.545H268.615z"/>
		<path fill="#E6C2A1" d="M312.469,370.841v-12.68h5.297l1.129,8.408l0.922,1.059c1.025,0.32,2.045,0.559,3.061,0.719
			c1.014,0.159,2.045,0.238,3.092,0.238c2.734,0,4.922-0.604,6.562-1.811c1.641-1.208,2.461-2.814,2.461-4.82
			c0-1.777-0.574-3.354-1.725-4.733c-1.152-1.378-3.072-2.739-5.76-4.085c-0.434-0.227-1.094-0.547-1.982-0.957
			c-3.191-1.48-5.584-2.893-7.178-4.238c-1.572-1.32-2.781-2.813-3.623-4.477c-0.844-1.664-1.266-3.361-1.266-5.094
			c0-4.01,1.533-7.314,4.598-9.912s7.035-3.896,11.912-3.896c2.119,0,4.271,0.2,6.459,0.599c2.188,0.399,4.422,0.997,6.699,1.794
			v11.348h-5.059l-1.162-7.279l-0.99-0.992c-0.662-0.342-1.414-0.592-2.256-0.752c-0.844-0.158-1.801-0.238-2.871-0.238
			c-2.484,0-4.479,0.615-5.982,1.846s-2.256,2.836-2.256,4.818c0,1.459,0.428,2.775,1.283,3.948
			c0.854,1.174,2.318,2.376,4.391,3.606c0.502,0.318,1.898,0.985,4.188,1.999c2.291,1.015,4.221,2.022,5.793,3.024
			c2.029,1.299,3.59,2.86,4.684,4.684c1.094,1.822,1.641,3.771,1.641,5.844c0,4.285-1.697,7.748-5.094,10.391
			c-3.395,2.645-7.883,3.965-13.467,3.965c-2.277,0-4.568-0.199-6.869-0.598C316.797,372.169,314.588,371.593,312.469,370.841z"/>
	</g>
	<g>
		<path fill="#E6C2A1" d="M256.764,109.748L255.074,108h-38.525l0.488-44.655L201.17,44.138l-15.868,19.155L185.791,108H147.45
			l-1.691,1.748l-26.571,48.479c0.201,7.171,3.098,13.922,8.211,18.97c5.249,5.181,12.222,8.06,19.636,8.06
			c7.453,0,14.447-2.853,19.699-8.058c5.09-5.044,7.966-11.952,8.151-19.107L150.27,113h35.575l1.032,96H177v5h20.061l0.625,26
			h6.415l0.312-26H225v-5h-9.537l1.031-96h35.76l-24.615,45.097c0.186,7.156,3.062,13.954,8.15,18.998
			c5.252,5.205,12.246,8.129,19.699,8.129c7.416,0,14.389-2.824,19.637-8.004c5.113-5.048,8.01-11.837,8.211-19.007L256.764,109.748
			z M163.561,174.048c-4.432,4.384-10.261,6.846-16.535,6.846c-6.271,0-12.172-2.473-16.6-6.832
			c-3.358-3.306-5.613-7.062-6.511-12.062h46.065C169.098,167,166.901,170.745,163.561,174.048z M169.146,157h-44.224l22.112-39.604
			L169.146,157z M192.346,209L191.08,67.57l10.09-13.478l10.09,13.558L209.994,209H192.346z M255.488,117.396L277.602,157h-44.225
			L255.488,117.396z M272.098,174.087c-4.428,4.358-10.328,6.808-16.602,6.808s-12.102-2.487-16.533-6.871
			c-3.34-3.303-5.537-7.023-6.42-12.023h46.064C277.711,167,275.455,170.781,272.098,174.087z"/>
		<path fill="#E6C2A1" d="M200.724,33.55c30.635,0,54.877,4.141,69.939,7.616C280.628,43.464,289,45.781,292,47.247v107.855
			c0,12.374-2.302,25.62-7.081,38.307c-4.715,12.524-11.517,24.535-19.878,34.732c-8.67,10.574-18.466,18.928-29.226,24.826
			c-11.314,6.203-23.06,9.349-34.965,9.349c-11.905,0-23.664-3.146-34.979-9.349c-10.76-5.898-20.604-14.252-29.273-24.826
			c-8.362-10.197-15.427-22.208-20.143-34.732c-4.778-12.687-7.455-25.934-7.455-38.307V47.248
			C121,43.374,153.203,33.55,200.724,33.55 M201,26.767c-60.941,0-99,15.773-99,15.773v112.562c0,54.248,44.752,113.997,99,113.997
			s99-59.749,99-113.997V42.54C300,42.54,261.941,26.767,201,26.767L201,26.767z"/>
	</g>
</g>
</svg>
