<?xml version="1.0" encoding="utf-8"?>
<!-- Generator: Adobe Illustrator 16.0.0, SVG Export Plug-In . SVG Version: 6.00 Build 0)  -->
<!DOCTYPE svg PUBLIC "-//W3C//DTD SVG 1.1//EN" "http://www.w3.org/Graphics/SVG/1.1/DTD/svg11.dtd">
<svg version="1.1" id="Layer_1" xmlns="http://www.w3.org/2000/svg" xmlns:xlink="http://www.w3.org/1999/xlink" x="0px" y="0px"
	 width="450px" height="450px" viewBox="-25 0 450 450" enable-background="new -25 0 450 450" xml:space="preserve">
<g>
	<g>
		<path fill="#E6C2A1" d="M-20.989,397.185v-3.418l4.136-0.376l1.265-1.094v-37.324l-1.06-0.991l-4.614-0.342v-3.418h18.901
			c6.676,0,11.53,1.128,14.561,3.384c3.03,2.256,4.546,5.834,4.546,10.732c0,4.922-1.606,8.744-4.819,11.467
			c-3.213,2.724-7.713,4.085-13.501,4.085c-0.547,0-1.219-0.017-2.017-0.052c-0.798-0.033-1.721-0.085-2.769-0.153v12.612
			l1.06,1.094l4.99,0.376v3.418H-20.989z M-6.36,375.686c0.045,0,0.125,0.012,0.239,0.034c1.048,0.068,1.812,0.103,2.29,0.103
			c3.623,0,6.352-0.934,8.186-2.803c1.834-1.868,2.751-4.66,2.751-8.374c0-3.35-0.843-5.913-2.529-7.69
			c-1.687-1.777-4.113-2.666-7.28-2.666H-6.36V375.686z"/>
		<path fill="#E6C2A1" d="M19.958,397.185v-3.418l4.272-0.376l1.196-1.094v-37.324l-0.991-0.991l-4.478-0.342v-3.418h20.166v3.418
			l-4.272,0.342l-1.128,0.991v38.145h13.467l0.889-1.128l1.06-8.511h5.195v13.706H19.958z"/>
		<path fill="#E6C2A1" d="M75.33,349.709h7.349l16.099,43.34l4.136,0.718v3.418H84.011v-3.418l4.409-0.444l0.513-0.889
			l-4.204-11.895H69.451l-4.204,11.826l0.718,0.889l4.409,0.513v3.418H55.3v-3.418l4.204-0.649L75.33,349.709z M76.868,359.313
			l-6.084,17.295h12.339L76.868,359.313z"/>
		<path fill="#E6C2A1" d="M105.989,350.222h33.735v3.828l-24.507,38.999h17.944l0.684-0.991l1.333-8.442h4.956v13.569h-35.41v-3.862
			l24.507-39.033h-15.825l-1.333,0.82l-1.128,7.485h-4.956V350.222z"/>
		<path fill="#E6C2A1" d="M162.317,349.709h7.349l16.099,43.34l4.136,0.718v3.418h-18.901v-3.418l4.409-0.444l0.513-0.889
			l-4.204-11.895h-15.278l-4.204,11.826l0.718,0.889l4.409,0.513v3.418h-15.073v-3.418l4.204-0.649L162.317,349.709z
			 M163.855,359.313l-6.084,17.295h12.339L163.855,359.313z"/>
		<path fill="#E6C2A1" d="M210.887,397.185v-3.418l4.271-0.376l1.197-1.094v-37.324l-0.992-0.991l-4.477-0.342v-3.418h20.166v3.418
			l-4.273,0.342l-1.127,0.991v38.145h13.467l0.889-1.128l1.059-8.511h5.195v13.706H210.887z"/>
		<path fill="#E6C2A1" d="M249.031,397.185v-3.418l4.271-0.376l1.129-1.094v-37.324l-1.129-0.991l-4.271-0.342v-3.418h35.307v10.972
			h-4.854l-1.195-6.152l-0.752-0.923h-14.014v16.68h9.125l0.957-0.991l0.719-5.024h4.135v16.235h-4.135l-0.719-5.059l-0.957-0.957
			h-9.125v18.184h16.338l0.82-1.128l1.127-7.417h4.82v12.544H249.031z"/>
		<path fill="#E6C2A1" d="M316.604,374.079h20.439v3.452l-4.066,0.342l-1.094,0.957v16.338c-2.758,0.957-5.436,1.675-8.033,2.153
			s-5.15,0.718-7.656,0.718c-7.314,0-13.25-2.278-17.807-6.836c-4.559-4.557-6.836-10.493-6.836-17.808
			c0-7.246,2.328-13.051,6.988-17.415c4.66-4.363,10.842-6.545,18.543-6.545c2.324,0,4.723,0.193,7.195,0.581
			s5.008,0.969,7.605,1.743v11.895h-5.127l-1.334-7.417l-1.059-1.265c-0.912-0.387-1.846-0.672-2.803-0.854
			s-1.961-0.273-3.008-0.273c-5.242,0-9.361,1.737-12.357,5.212c-2.996,3.476-4.494,8.255-4.494,14.339
			c0,6.243,1.533,11.126,4.598,14.646c3.064,3.521,7.32,5.281,12.766,5.281c0.365,0,0.877-0.018,1.539-0.051
			c0.66-0.035,1.424-0.086,2.289-0.154V378.83l-1.094-0.957l-5.195-0.342V374.079z"/>
		<path fill="#E6C2A1" d="M357.688,349.709h7.35l16.098,43.34l4.137,0.718v3.418h-18.902v-3.418l4.41-0.444l0.512-0.889
			l-4.203-11.895h-15.279l-4.203,11.826l0.717,0.889l4.41,0.513v3.418h-15.074v-3.418l4.205-0.649L357.688,349.709z
			 M359.227,359.313l-6.084,17.295h12.338L359.227,359.313z"/>
		<path fill="#E6C2A1" d="M385.887,397.185v-3.418l4.271-0.376l1.197-1.094v-37.324l-0.992-0.991l-4.477-0.342v-3.418h20.166v3.418
			l-4.273,0.342l-1.127,0.991v38.145h13.467l0.889-1.128l1.059-8.511h5.195v13.706H385.887z"/>
	</g>
	<g>
		<path fill="#E6C2A1" d="M256.969,135.095l-1.691-1.595h-38.524l0.489-44.808l-15.869-19.284l-15.868,19.271l0.489,44.821h-38.341
			l-1.691,1.595l-26.571,48.403c0.201,7.171,3.098,13.884,8.211,18.932c5.248,5.181,12.221,8.04,19.636,8.04
			c7.453,0,14.447-2.862,19.699-8.067c5.09-5.043,7.966-11.804,8.151-18.959L150.474,138.5h35.575l1.032,96H176.5v5h20.765l0.625,26
			h6.415l0.313-26H224.5v-5h-8.833l1.032-96h35.758l-24.615,44.944c0.186,7.156,3.062,13.877,8.152,18.921
			c5.252,5.205,12.246,8.092,19.699,8.092c7.414,0,14.387-2.844,19.635-8.023c5.113-5.048,8.011-11.771,8.211-18.941
			L256.969,135.095z M163.765,199.396c-4.432,4.384-10.262,6.771-16.535,6.771c-6.272,0-12.172-2.358-16.6-6.718
			c-3.358-3.307-5.613-6.948-6.511-11.948h46.065C169.302,192.5,167.105,196.092,163.765,199.396z M169.35,182.5h-44.223
			l22.112-39.604L169.35,182.5z M192.55,234.5l-1.266-141.583l10.089-13.554l10.09,13.672L210.197,234.5H192.55z M255.693,142.896
			l22.111,39.604h-44.224L255.693,142.896z M272.301,199.434c-4.428,4.358-10.328,6.732-16.6,6.732
			c-6.273,0-12.104-2.373-16.535-6.757c-3.34-3.303-5.536-6.909-6.42-11.909h46.066C277.914,192.5,275.658,196.128,272.301,199.434z
			"/>
		<path fill="#E6C2A1" d="M200.575,58.744c30.636,0,54.7,4.141,69.765,7.616c9.963,2.298,17.16,4.615,21.16,6.081v107.855
			c0,12.374-1.95,25.62-6.729,38.307c-4.716,12.524-11.342,24.535-19.703,34.732c-8.67,10.574-18.377,18.928-29.137,24.826
			c-11.315,6.203-23.016,9.349-34.921,9.349c-11.905,0-23.643-3.146-34.957-9.349c-10.76-5.898-20.593-14.252-29.263-24.826
			c-8.363-10.197-15.773-22.208-20.489-34.732c-4.778-12.688-7.802-25.934-7.802-38.307V72.442
			C119.5,68.568,153.055,58.744,200.575,58.744 M200,51.961c-60.941,0-98.5,15.773-98.5,15.773v112.562
			c0,54.248,44.252,113.997,98.5,113.997c54.248,0,98.5-59.749,98.5-113.997V67.734C298.5,67.734,260.941,51.961,200,51.961
			L200,51.961z"/>
	</g>
</g>
</svg>
